<?xml version="1.0" standalone="no"?><!DOCTYPE svg PUBLIC "-//W3C//DTD SVG 1.1//EN" "http://www.w3.org/Graphics/SVG/1.1/DTD/svg11.dtd"><svg t="1578919072403" class="icon" viewBox="0 0 1024 1024" version="1.1" xmlns="http://www.w3.org/2000/svg" p-id="926" xmlns:xlink="http://www.w3.org/1999/xlink" width="200" height="200"><defs><style type="text/css"></style></defs><path d="M766.10140992 141.21142578c12.76995849 0 23.65631104 4.63485718 32.65164183 13.74884034C807.82254028 163.91851807 812.33874512 174.89385987 812.33874512 187.71572876V836.44000244c0 12.82928467-4.51620484 23.78979492-13.58569337 32.91119385-8.99533081 8.95825195-19.88168335 13.43737793-32.65164183 13.43737793-12.75512695 0-23.64147949-4.47912598-32.65164185-13.4447937-9.06948852-9.11398315-13.57086182-20.08190917-13.57086182-32.90377808V187.70831299c0-12.81445313 4.50137329-23.78237915 13.57086182-32.74804687C742.45993042 145.84628296 753.35369873 141.21142578 766.10140992 141.21142578zM257.88375854 141.21142578c12.75512695 0 23.68597412 4.63485718 32.85186768 13.90457154l323.40179443 324.44000244c8.8692627 8.80993652 13.33355713 19.62213135 13.33355713 32.44400024 0 13.12591552-4.46429443 24.10125732-13.33355713 33.05950927l-323.40179443 324.44000245C281.84411622 878.30944824 270.88360596 882.78857422 257.88375854 882.78857422c-12.75512695 0-23.62664795-4.47912598-32.68130492-13.2890625C216.18487549 860.54125977 211.66125488 849.57333374 211.66125488 836.90719604c0-12.67355347 4.46429443-23.64147949 13.31872559-33.06692505L515.93777466 512 224.97998047 220.61950683C216.12554932 211.20147705 211.66125488 200.22613526 211.66125488 187.55999756c0-12.6661377 4.5236206-23.64147949 13.54119874-32.75546264C234.24969482 145.84628296 245.12863159 141.21142578 257.88375854 141.21142578z" p-id="927"></path></svg>